<?xml version="1.0" encoding="UTF-8"?>
<svg id="BITSmart" xmlns="http://www.w3.org/2000/svg" viewBox="0 0 1024 1024">
  <defs>
    <style>
      .cls-1 {
        fill: #00b0b9;
      }
    </style>
  </defs>
  <g id="Fitbit">
    <path class="cls-1" d="m551.1351,205.0338c0,29.3514-24.4595,53.8108-53.8108,53.8108s-53.8108-24.4595-53.8108-53.8108,24.4595-53.8108,53.8108-53.8108,53.8108,24.4595,53.8108,53.8108Zm-53.8108,97.8378c-31.7973,0-56.2568,24.4595-56.2568,56.2568s24.4595,56.2568,56.2568,56.2568,56.2568-24.4595,56.2568-56.2568-24.4595-56.2568-56.2568-56.2568Zm0,151.6486c-31.7973,0-58.7027,26.9054-58.7027,58.7027s26.9054,58.7027,58.7027,58.7027,58.7027-26.9054,58.7027-58.7027-26.9054-58.7027-58.7027-58.7027Zm0,154.0946c-31.7973,0-56.2568,24.4595-56.2568,56.2567s24.4595,56.2567,56.2568,56.2567,56.2568-24.4595,56.2568-56.2567c0-29.3514-24.4595-56.2567-56.2568-56.2567Zm0,156.5405c-29.3513,0-53.8108,24.4595-53.8108,53.8108s24.4595,53.8108,53.8108,53.8108,53.8108-24.4595,53.8108-53.8108-24.4595-53.8108-53.8108-53.8108Zm149.2027-469.6216c-34.2432,0-63.5946,29.3514-63.5946,63.5946s29.3514,63.5946,63.5946,63.5946,63.5946-29.3513,63.5946-63.5946-29.3513-63.5946-63.5946-63.5946Zm0,151.6487c-36.6892,0-66.0406,29.3513-66.0406,66.0405s29.3514,66.0405,66.0406,66.0405,66.0406-29.3514,66.0406-66.0405-29.3514-66.0405-66.0406-66.0405Zm0,154.0946c-34.2432,0-63.5946,29.3514-63.5946,63.5946s29.3514,63.5946,63.5946,63.5946,63.5946-29.3514,63.5946-63.5946-29.3513-63.5946-63.5946-63.5946Zm154.0946-161.4324c-39.1351,0-73.3784,31.7973-73.3784,73.3784,0,39.1351,31.7973,73.3784,73.3784,73.3784s73.3784-31.7973,73.3784-73.3784c-2.446-41.5811-34.2432-73.3784-73.3784-73.3784Zm-454.9459-129.6351c-26.9054,0-48.9189,22.0135-48.9189,48.9189s22.0135,48.9189,48.9189,48.9189,48.9189-22.0135,48.9189-48.9189-22.0135-48.9189-48.9189-48.9189Zm0,151.6486c-29.3513,0-51.3649,22.0135-51.3649,51.3649s22.0135,51.3649,51.3649,51.3649,51.3649-22.0135,51.3649-51.3649-22.0135-51.3649-51.3649-51.3649Zm0,154.0946c-26.9054,0-48.9189,22.0135-48.9189,48.9189s22.0135,48.9189,48.9189,48.9189,48.9189-22.0135,48.9189-48.9189-22.0135-48.9189-48.9189-48.9189Zm-151.6486-146.7568c-24.4595,0-44.027,19.5676-44.027,44.027s19.5676,44.027,44.027,44.027,44.027-19.5676,44.027-44.027-19.5676-44.027-44.027-44.027Z"/>
  </g>
</svg>